<svg xmlns="http://www.w3.org/2000/svg" xmlns:xlink="http://www.w3.org/1999/xlink" viewBox="0 0 476.89 318.06"><defs><style>.cls-1{fill:url(#linear-gradient);}.cls-2{fill:url(#linear-gradient-2);}.cls-3{opacity:0.42;fill:url(#radial-gradient);}.cls-4{fill:#fff;}.cls-24,.cls-4{opacity:0.47;}.cls-5{fill:url(#linear-gradient-3);}.cls-6{fill:url(#linear-gradient-4);}.cls-7{fill:url(#linear-gradient-5);}.cls-8{fill:url(#linear-gradient-6);}.cls-9{fill:url(#linear-gradient-7);}.cls-10{fill:url(#linear-gradient-8);}.cls-11{fill:url(#linear-gradient-9);}.cls-12{fill:url(#linear-gradient-10);}.cls-13{fill:url(#linear-gradient-11);}.cls-14{fill:url(#linear-gradient-12);}.cls-15{opacity:0.35;fill:url(#linear-gradient-13);}.cls-16{fill:url(#linear-gradient-14);}.cls-17{fill:url(#linear-gradient-15);}.cls-18{fill:#28e8d0;}.cls-19{fill:#25f1d4;}.cls-20{fill:#01e6e3;}.cls-21{fill:#05dcd7;}.cls-22{fill:#16d6df;}.cls-23{fill:#21bdc9;}.cls-24{fill:url(#linear-gradient-16);}.cls-25{fill:#256dc2;}.cls-26{fill:#336dce;}.cls-27{fill:#254dc0;}.cls-28{fill:#245dc2;}.cls-29{fill:#2c8bcb;}.cls-30{fill:#2f85c9;}.cls-31{fill:#276ebb;}.cls-32{fill:#2eddd6;}.cls-33{fill:#1dc7d0;}.cls-34{fill:#2b61ba;}.cls-35{fill:#3174c9;}.cls-36{fill:#207fc2;}.cls-37{fill:#2794ca;}.cls-38{fill:#30a5d4;}.cls-39{fill:url(#linear-gradient-17);}</style><linearGradient id="linear-gradient" x1="275.93" y1="46.44" x2="366.93" y2="210.94" gradientUnits="userSpaceOnUse"><stop offset="0.01" stop-color="#11a096"/><stop offset="0.25" stop-color="#1cbebe"/><stop offset="0.35" stop-color="#1bb8bd"/><stop offset="0.48" stop-color="#19a7b9"/><stop offset="0.64" stop-color="#168bb2"/><stop offset="0.81" stop-color="#1164a9"/><stop offset="0.99" stop-color="#0b339e"/><stop offset="1" stop-color="#0a2f9d"/></linearGradient><linearGradient id="linear-gradient-2" x1="212.06" y1="132.09" x2="164.35" y2="216.09" gradientUnits="userSpaceOnUse"><stop offset="0" stop-color="#16789d"/><stop offset="0.4" stop-color="#1873a7"/><stop offset="1" stop-color="#1c66bf"/></linearGradient><radialGradient id="radial-gradient" cx="216.47" cy="121.32" r="26.74" gradientUnits="userSpaceOnUse"><stop offset="0.07"/><stop offset="1" stop-opacity="0"/></radialGradient><linearGradient id="linear-gradient-3" x1="114.94" y1="9.43" x2="114.94" y2="70.32" gradientUnits="userSpaceOnUse"><stop offset="0" stop-color="#23f6d5"/><stop offset="1" stop-color="#18a2a4"/></linearGradient><linearGradient id="linear-gradient-4" x1="129.48" y1="22.78" x2="102.66" y2="52.36" gradientUnits="userSpaceOnUse"><stop offset="0" stop-color="#fff" stop-opacity="0.4"/><stop offset="0.07" stop-color="#fff" stop-opacity="0.32"/><stop offset="0.2" stop-color="#fff" stop-opacity="0.18"/><stop offset="0.32" stop-color="#fff" stop-opacity="0.08"/><stop offset="0.44" stop-color="#fff" stop-opacity="0.02"/><stop offset="0.53" stop-color="#fff" stop-opacity="0"/><stop offset="0.65" stop-color="#fff" stop-opacity="0.01"/><stop offset="0.75" stop-color="#fff" stop-opacity="0.05"/><stop offset="0.85" stop-color="#fff" stop-opacity="0.12"/><stop offset="0.94" stop-color="#fff" stop-opacity="0.22"/><stop offset="1" stop-color="#fff" stop-opacity="0.3"/></linearGradient><linearGradient id="linear-gradient-5" x1="245.49" y1="96.38" x2="245.49" y2="266.93" gradientUnits="userSpaceOnUse"><stop offset="0" stop-color="#21a5a9"/><stop offset="1" stop-color="#0a2f9d"/></linearGradient><linearGradient id="linear-gradient-6" x1="277.28" y1="79.85" x2="335.98" y2="299.06" xlink:href="#linear-gradient-5"/><linearGradient id="linear-gradient-7" x1="289.59" y1="11.17" x2="251.07" y2="71.7" gradientUnits="userSpaceOnUse"><stop offset="0.01" stop-color="#1bf8d7"/><stop offset="0.52" stop-color="#22fad0"/><stop offset="1" stop-color="#26c7cf"/></linearGradient><linearGradient id="linear-gradient-8" x1="234.71" y1="78.79" x2="201.07" y2="122.51" gradientUnits="userSpaceOnUse"><stop offset="0" stop-color="#fff" stop-opacity="0.4"/><stop offset="0.07" stop-color="#fff" stop-opacity="0.32"/><stop offset="0.2" stop-color="#fff" stop-opacity="0.18"/><stop offset="0.32" stop-color="#fff" stop-opacity="0.08"/><stop offset="0.44" stop-color="#fff" stop-opacity="0.02"/><stop offset="0.53" stop-color="#fff" stop-opacity="0"/><stop offset="0.67" stop-color="#fff" stop-opacity="0.01"/><stop offset="0.79" stop-color="#fff" stop-opacity="0.05"/><stop offset="0.91" stop-color="#fff" stop-opacity="0.12"/><stop offset="1" stop-color="#fff" stop-opacity="0.2"/></linearGradient><linearGradient id="linear-gradient-9" x1="404.53" y1="220.18" x2="375.09" y2="258.45" gradientUnits="userSpaceOnUse"><stop offset="0.12" stop-color="#fff" stop-opacity="0.4"/><stop offset="0.16" stop-color="#fff" stop-opacity="0.3"/><stop offset="0.21" stop-color="#fff" stop-opacity="0.19"/><stop offset="0.27" stop-color="#fff" stop-opacity="0.11"/><stop offset="0.34" stop-color="#fff" stop-opacity="0.05"/><stop offset="0.42" stop-color="#fff" stop-opacity="0.01"/><stop offset="0.53" stop-color="#fff" stop-opacity="0"/><stop offset="0.68" stop-color="#fff" stop-opacity="0.01"/><stop offset="0.8" stop-color="#fff" stop-opacity="0.05"/><stop offset="0.91" stop-color="#fff" stop-opacity="0.12"/><stop offset="1" stop-color="#fff" stop-opacity="0.2"/></linearGradient><linearGradient id="linear-gradient-10" x1="290.59" y1="155.25" x2="277.29" y2="169.92" gradientUnits="userSpaceOnUse"><stop offset="0" stop-color="#fff" stop-opacity="0.4"/><stop offset="0" stop-color="#fff" stop-opacity="0.39"/><stop offset="0.11" stop-color="#fff" stop-opacity="0.27"/><stop offset="0.23" stop-color="#fff" stop-opacity="0.17"/><stop offset="0.35" stop-color="#fff" stop-opacity="0.1"/><stop offset="0.5" stop-color="#fff" stop-opacity="0.04"/><stop offset="0.68" stop-color="#fff" stop-opacity="0.01"/><stop offset="1" stop-color="#fff" stop-opacity="0"/></linearGradient><linearGradient id="linear-gradient-11" x1="256.47" y1="202.59" x2="283.06" y2="157.42" xlink:href="#linear-gradient-10"/><linearGradient id="linear-gradient-12" x1="259.43" y1="44.33" x2="280.61" y2="8.37" gradientTransform="translate(542.06 49.28) rotate(180)" gradientUnits="userSpaceOnUse"><stop offset="0.09" stop-color="#fff"/><stop offset="0.09" stop-color="#fff" stop-opacity="0.97"/><stop offset="0.16" stop-color="#fff" stop-opacity="0.72"/><stop offset="0.23" stop-color="#fff" stop-opacity="0.5"/><stop offset="0.29" stop-color="#fff" stop-opacity="0.32"/><stop offset="0.35" stop-color="#fff" stop-opacity="0.18"/><stop offset="0.41" stop-color="#fff" stop-opacity="0.08"/><stop offset="0.46" stop-color="#fff" stop-opacity="0.02"/><stop offset="0.51" stop-color="#fff" stop-opacity="0"/><stop offset="0.59" stop-color="#fff" stop-opacity="0.03"/><stop offset="0.72" stop-color="#fff" stop-opacity="0.12"/><stop offset="0.88" stop-color="#fff" stop-opacity="0.27"/><stop offset="1" stop-color="#fff" stop-opacity="0.4"/></linearGradient><linearGradient id="linear-gradient-13" x1="140.4" y1="229.63" x2="111.97" y2="256.69" gradientUnits="userSpaceOnUse"><stop offset="0" stop-color="#fff" stop-opacity="0.4"/><stop offset="0.03" stop-color="#fff" stop-opacity="0.34"/><stop offset="0.1" stop-color="#fff" stop-opacity="0.23"/><stop offset="0.18" stop-color="#fff" stop-opacity="0.15"/><stop offset="0.28" stop-color="#fff" stop-opacity="0.08"/><stop offset="0.39" stop-color="#fff" stop-opacity="0.03"/><stop offset="0.55" stop-color="#fff" stop-opacity="0.01"/><stop offset="1" stop-color="#fff" stop-opacity="0"/></linearGradient><linearGradient id="linear-gradient-14" x1="93.34" y1="280.39" x2="135.3" y2="232.93" gradientUnits="userSpaceOnUse"><stop offset="0" stop-color="#039" stop-opacity="0.4"/><stop offset="0.1" stop-color="#476cb6" stop-opacity="0.29"/><stop offset="0.24" stop-color="#99add6" stop-opacity="0.16"/><stop offset="0.42" stop-color="#d3dced" stop-opacity="0.07"/><stop offset="0.63" stop-color="#f5f7fb" stop-opacity="0.02"/><stop offset="1" stop-color="#fff" stop-opacity="0"/></linearGradient><linearGradient id="linear-gradient-15" x1="38.21" y1="36.23" x2="58.16" y2="63.05" gradientUnits="userSpaceOnUse"><stop offset="0.01" stop-color="#29e3cf"/><stop offset="1" stop-color="#24c9c5"/></linearGradient><linearGradient id="linear-gradient-16" x1="118.01" y1="191.12" x2="57.48" y2="192.5" gradientUnits="userSpaceOnUse"><stop offset="0.01" stop-color="#fff" stop-opacity="0.3"/><stop offset="1" stop-color="#fff" stop-opacity="0"/></linearGradient><linearGradient id="linear-gradient-17" x1="362.34" y1="242.31" x2="345.07" y2="242.76" gradientUnits="userSpaceOnUse"><stop offset="0.07" stop-opacity="0.46"/><stop offset="1" stop-opacity="0"/></linearGradient></defs><title>Asset 2</title><g id="Layer_2" data-name="Layer 2"><g id="Layer_1-2" data-name="Layer 1"><path class="cls-1" d="M328.27,171.43c3.43.7,8.24,1.77,13.91,3.37a162,162,0,0,1,28.74,10.7,151.31,151.31,0,0,1,16.36,9.32L307.74,34.11l-30.06-4.38L257.19,82.39a16.24,16.24,0,0,1,6.57-6.19,16.8,16.8,0,0,1,13.46-.46A16.32,16.32,0,0,1,283,79.87Z"/><path class="cls-2" d="M149.88,200.82l44.25-85.41,38.3,19.83-43.8,86.33a32.53,32.53,0,0,1-38.75-20.75Z"/><path class="cls-3" d="M227.27,145.41a20.63,20.63,0,0,1-9.19,4.35,22.26,22.26,0,0,1-13.76-2.18c-3.84-1.77-6.14-4-10.19-7.8a78.82,78.82,0,0,1-8-8.88l8-15.49L233,133.82Z"/><path class="cls-4" d="M384.6,275.23h0c0-.13,0-.24,0-.33Z"/><circle class="cls-5" cx="114.94" cy="39.13" r="39.13"/><circle class="cls-6" cx="115.5" cy="38.2" r="27.98"/><path class="cls-7" d="M417.39,246.63a28.58,28.58,0,0,0-28.58-28.58c-2.73,0-4.86,1.92-8.43,1.26-5.59-1-9.33-6.32-11.63-10.69-18.72-12.18-24.51-13.08-26.14-11.35-3.18,3.36,9.32,16.71,4.35,26.83-2.1,4.28-6.55,6.38-9.63,7.46H171.18a47.52,47.52,0,0,1-34.13-34.75l0-111.44A49.44,49.44,0,0,1,93,86.29V216l-1.26,5.15c-.82,1.15-1.64,2.29-2.47,3.43a41.66,41.66,0,0,0-13.89,19.94,42.08,42.08,0,0,0-1.8,11.93,40.2,40.2,0,0,0,40.2,40.21,40.09,40.09,0,0,0,32.62-16.71l4.5-3,6.74-1.72H388.81A28.58,28.58,0,0,0,417.39,246.63Z"/><path class="cls-8" d="M414,229.25c-3.09-5.79-8.41-9.7-18.94-17.28a179.33,179.33,0,0,0-29.15-17.3c-7.53-3.48-11.3-5.22-17-6.73-8.07-2.14-15.51-2.7-28.74-6.42a22.62,22.62,0,0,1-7.95-3.51,20.45,20.45,0,0,1-4.52-4.6c-.05-.57-.1-1.14-.18-1.7a36.08,36.08,0,0,0-45-29.63h0a19.66,19.66,0,0,1-13.36-6.37A18,18,0,0,1,244.34,125a17,17,0,0,1,.75-6.33h0a31.27,31.27,0,1,0-27,15.47c.78,0,1.55,0,2.31-.09h0a20.3,20.3,0,0,1,11.8,3.61,20,20,0,0,1,6.19,7.11c3.73,7.23,1.69,14.38,1.15,16.12h0a36.06,36.06,0,0,0,59.58,39.61,36.58,36.58,0,0,0,2.45-3.2,18.66,18.66,0,0,1,6.83-3.39c1.52-.38,5.75-1.22,15.59,2.45,6.18,2.3,12.46,4.79,19,10.47,9.62,8.41,12.66,18.71,13.91,22.86,2.33,7.72,2.25,13.84,2.14,22.31a120.61,120.61,0,0,1-2.58,23.23h33.13a31,31,0,0,0,19.8-8.72,30,30,0,0,0,8-14.5C420,240.88,415.37,231.87,414,229.25Z"/><path class="cls-9" d="M221.88,59.34c7.15-14.89,13.79-27.4,19.26-37.26,4.52-8.13,7.6-13.3,14-17.19C266-1.77,277.69.72,278.86,1a32.36,32.36,0,0,1,14.56,7.79c2.32,2.18,4.15,4.58,9.75,15.83,2.21,4.46,5.13,10.52,8.37,17.88a33.41,33.41,0,0,0-9.86.12c-5.16.84-11.65,3.18-22.36,13a125.11,125.11,0,0,0-22.13,26.83,40.64,40.64,0,0,0-35.31-23Z"/><circle class="cls-10" cx="217.29" cy="101.43" r="23.16"/><circle class="cls-11" cx="387.28" cy="242.6" r="23.16"/><circle class="cls-12" cx="273.3" cy="174.32" r="23.56"/><circle class="cls-13" cx="271.03" cy="177.86" r="24.96"/><circle class="cls-14" cx="271.03" cy="24.64" r="19.87"/><circle class="cls-15" cx="119.74" cy="249.29" r="22.76"/><circle class="cls-16" cx="115.16" cy="255.71" r="29.18"/><circle class="cls-17" cx="47.76" cy="49.07" r="13.61"/><circle class="cls-18" cx="10.57" cy="49.28" r="10.57"/><circle class="cls-19" cx="58.43" cy="18.45" r="7.45"/><circle class="cls-20" cx="40.72" cy="78.68" r="2.63"/><circle class="cls-21" cx="52.65" cy="78.68" r="2.63"/><circle class="cls-22" cx="65.2" cy="78.68" r="2.63"/><circle class="cls-23" cx="78.98" cy="78.82" r="4.05"/><path class="cls-24" d="M123.64,240.66c-41-62.14-10.69-139.2-6.35-149.75a24.42,24.42,0,0,1-9.89,1.34,25.46,25.46,0,0,1-14.39-6V216l-1.26,5.15c-.82,1.15-1.64,2.29-2.47,3.43a41.66,41.66,0,0,0-13.89,19.94,42.08,42.08,0,0,0-1.8,11.93,40.2,40.2,0,0,0,40.2,40.21,40.09,40.09,0,0,0,32.62-16.71l4.5-3,6.74-1.72A128.77,128.77,0,0,1,123.64,240.66Z"/><circle class="cls-25" cx="47.99" cy="208.59" r="9.71"/><circle class="cls-26" cx="339.94" cy="309.03" r="9.04"/><circle class="cls-27" cx="351.77" cy="290.32" r="5.54"/><circle class="cls-28" cx="435.24" cy="271.06" r="5.54"/><circle class="cls-29" cx="413.68" cy="203.76" r="5.54"/><circle class="cls-30" cx="468.57" cy="247.77" r="8.31"/><circle class="cls-31" cx="441.79" cy="247.21" r="9.53"/><circle class="cls-32" cx="381.89" cy="93.12" r="10.73"/><circle class="cls-33" cx="370.33" cy="125.9" r="2.69"/><circle class="cls-33" cx="364.77" cy="114.15" r="2.69"/><circle class="cls-33" cx="359.04" cy="102.91" r="2.69"/><circle class="cls-33" cx="353.45" cy="91.96" r="2.69"/><circle class="cls-33" cx="348.06" cy="80.75" r="2.69"/><circle class="cls-27" cx="334.66" cy="290.1" r="3.19"/><circle class="cls-27" cx="322.53" cy="290.1" r="3.19"/><circle class="cls-27" cx="309.84" cy="290.1" r="3.19"/><circle class="cls-27" cx="298.06" cy="290.1" r="3.19"/><circle class="cls-27" cx="285.47" cy="290.1" r="3.19"/><circle class="cls-34" cx="69.95" cy="219.02" r="3.93"/><circle class="cls-35" cx="69.93" cy="205.57" r="2.91"/><circle class="cls-36" cx="69.93" cy="192.5" r="2.91"/><circle class="cls-37" cx="69.93" cy="179.43" r="2.91"/><circle class="cls-38" cx="69.93" cy="166.36" r="2.91"/><path class="cls-39" d="M346.19,210A53.51,53.51,0,0,1,356,226.79c2.56,7.21,2.84,13,3.09,19.5a113.47,113.47,0,0,1-2.62,28.93H337.85l-.52-43.67a14.75,14.75,0,0,0,8.9-6.2A14.9,14.9,0,0,0,346.19,210Z"/></g></g></svg>